<svg xmlns="http://www.w3.org/2000/svg" width="255" height="510" fill="none" viewBox="0 0 255 510"><path fill="#E3F4FF" d="M0 8a8 8 0 0 1 8-8h239a8 8 0 0 1 8 8v494a8 8 0 0 1-8 8H8a8 8 0 0 1-8-8V8Z"/><mask id="mask0_5303_1440" width="255" height="510" x="0" y="0" maskUnits="userSpaceOnUse" style="mask-type:alpha"><path fill="#E3F4FF" d="M0 8a8 8 0 0 1 8-8h239a8 8 0 0 1 8 8v494a8 8 0 0 1-8 8H8a8 8 0 0 1-8-8V8Z"/></mask><g fill-rule="evenodd" clip-rule="evenodd" mask="url(#mask0_5303_1440)" opacity=".7"><path fill="url(#paint0_linear_5303_1440)" d="M292.54 76.717c25.731 96.029-22.786 194.702-110.522 235.316L128.6 197.691c32.811-15.224 51.098-52.288 41.449-88.299-9.649-36.011-43.882-59.003-80.046-55.745L79.094-72.085C175.456-80.508 266.81-19.313 292.54 76.717Z"/><path fill="url(#paint1_linear_5303_1440)" d="m97.662 207.162 10.909 125.732c-96.326 8.559-187.642-52.499-213.373-148.529C-130.534 88.335-82.017-10.337 5.719-50.951L59.138 63.39c-32.81 15.225-51.098 52.289-41.45 88.3 9.714 35.701 43.946 58.693 79.974 55.472Z"/></g><path fill="#fff" d="M45.053 370.705c0 14.02 3.5 27.232 9.679 38.794a82.74 82.74 0 0 0 28.018 30.484c.17.117.342.233.521.334 12.791 8.163 27.987 12.893 44.287 12.893 16.122 0 31.161-4.622 43.867-12.628.078-.039.163-.093.242-.148.108-.063.21-.125.311-.195a81.56 81.56 0 0 0 6.404-4.543c.225-.171.459-.358.684-.545a82.184 82.184 0 0 0 13.429-13.546 82.5 82.5 0 0 0 7.431-11.25c.101-.172.194-.35.288-.529a82.056 82.056 0 0 0 5.469-12.52 80.856 80.856 0 0 0 1.821-6.146 76.778 76.778 0 0 0 1.182-5.384c.514-2.77.887-5.594 1.113-8.458.179-2.179.264-4.388.264-6.613 0-27.839-13.779-52.457-34.895-67.388a79.239 79.239 0 0 0-4.63-3.057 1.258 1.258 0 0 0-.225-.14 80.355 80.355 0 0 0-5.789-3.198 8.89 8.89 0 0 0-.498-.249 77.917 77.917 0 0 0-5.882-2.622h-.007a74.346 74.346 0 0 0-4.887-1.774 80.57 80.57 0 0 0-15.623-3.47 41.24 41.24 0 0 0-1.354-.156 75.376 75.376 0 0 0-5.641-.397 68.24 68.24 0 0 0-4.489-.046h-.311a83.26 83.26 0 0 0-8.528.614 77.359 77.359 0 0 0-4.676.724c-38.437 7.018-67.575 40.684-67.575 81.159Z"/><path fill="#F75D34" d="M187.023 313.195c0-10.554 8.556-19.109 19.109-19.109 10.554 0 19.109 8.555 19.109 19.109 0 9.926-7.568 18.082-17.248 19.017l3.062 9.014-7.722-9.128c-9.226-1.355-16.31-9.301-16.31-18.903Z"/><path fill="#fff" fill-rule="evenodd" d="M209.625 305.001c1.051.088.365 4.533.365 4.533s2.512-.044 3.334-.088c.822-.045 2.328.044 2.465.88.138.836-.365 2.2-.365 2.2s.365.66.548 1.408c.183.748-.593 2.024-.593 2.024s.228.924-.092 1.98c-.265.877-7.614.783-10.1.726V319h-5.858l-.329-9.192 5.533-.628.05.414 1.663-.192s2.329-4.489 3.379-4.401Zm-5.654 4.842.392 8.562h-4.437l-.289-8.07 4.334-.492Z" clip-rule="evenodd"/><path fill="#006ECE" d="M54.732 409.498a82.736 82.736 0 0 0 28.017 30.485c.172.117.343.233.522.334 12.791 8.162 27.987 12.893 44.287 12.893 16.122 0 31.161-4.622 43.867-12.628.078-.039.163-.093.241-.148l.063-3.393.194-10.854.374-1.898 11.546-58.222c-8.512-21.054-28.679-30.78-32.842-32.779-.497-.242-.529-1.128-.529-1.128l-15.802-2.195-20.424-2.832s-30.259 14.566-47.213 40.521c-6.723 10.294-10.356 26.283-12.301 41.844Z"/><path fill="#006ECE" d="M183.844 366.065s7.085 16.489 10.462 28.408 9.933 25.824 9.933 25.824 3.973 35.758-13.31 33.97c-17.283-1.788-26.222-34.565-26.222-34.565l19.137-53.637Z"/><path fill="#E3F4FF" d="M178.513 436.762a.273.273 0 0 0 .27-.23c1.461-8.966 10.581-20.814 10.673-20.933a.274.274 0 0 0-.433-.336c-.093.121-9.297 12.079-10.781 21.181a.275.275 0 0 0 .271.318Z"/><path fill="#24272C" d="m184.372 404.604.653.218.187.063 17.242 5.68 15.693-27.551c1.058-1.867-.047-4.233-2.171-4.606l-13.647-2.412-.221.032-.114-.079a3.143 3.143 0 0 0-2.996 1.626l-14.626 27.029Z"/><path fill="#fff" d="m185.025 404.822.187.063c4.163-7.905 8.465-16.059 12.884-24.026.615-1.105 1.307-2.358 2.241-3.361.607-.662 1.284-1.167 1.992-1.502l-.054-.007c-.094-.016-.187-.032-.28-.039a6.749 6.749 0 0 0-1.806 1.416c-.941 1.019-1.641 2.287-2.256 3.4-4.419 7.989-8.738 16.143-12.908 24.056ZM201.862 379.247c.226-.147.483-.202.747-.155l3.968.739a.988.988 0 0 1 .794 1.151.971.971 0 0 1-.412.639.993.993 0 0 1-.56.171c-.063 0-.125 0-.187-.016l-3.968-.739a1.003 1.003 0 0 1-.638-.412.994.994 0 0 1-.156-.739.97.97 0 0 1 .412-.639Zm-.093 1.269a.822.822 0 0 0 .513.334l3.969.739c.21.039.42-.007.599-.132a.798.798 0 0 0-.304-1.44l-3.975-.739c-.047-.007-.094-.007-.148-.007a.766.766 0 0 0-.444.14.76.76 0 0 0-.334.506.81.81 0 0 0 .124.599Z"/><path fill="#fff" d="M204.238 420.298s0-4.271.696-8.244c.695-3.973 3.973-8.84 4.37-9.834.397-.993 5.86-6.456 4.966-9.138-.894-2.682-5.761-8.84-7.548-7.847-1.788.994 2.284 9.436 2.284 9.436l-2.45 3.046s-4.106-2.053-6.787-2.549c-2.682-.497-12.913-3.079-13.211-1.192-.298 1.887 14.402 7.747 14.402 7.747l-.596.894s-18.673-6.853-19.766-4.767c-1.092 2.085 13.394 8.942 13.394 8.942s-11.705-5.366-12.599-3.876c-.894 1.49 8.045 7.946 8.045 7.946s-1.092 7.548 2.086 10.131 10.728 1.689 12.714-.695Z"/><path fill="#E3F4FF" d="M171.425 440.582c.077-.039.163-.094.241-.148.109-.063.21-.125.311-.195l.055-2.637.264-13.313.553-27.403.28-13.928a.273.273 0 0 0-.272-.28c-.149-.008-.273.117-.281.265l-.311 15.576-.762 38.102-.078 3.961ZM87.558 382.928l-4.809 57.054c.171.117.342.234.521.335l4.832-57.343a.282.282 0 0 0-.249-.295.267.267 0 0 0-.295.249Z"/><path fill="#24272C" d="M151.2 254.853c6.328-1.518 12.337-3.621 19.582-.338 5.407 2.45 8.175 7.262 8.339 13.128 4.784-.407 9.555 2.902 11.83 7.132 2.274 4.23 1.678 9.859-1.519 13.442-2.641 2.96-6.682 4.372-10.642 4.612-3.959.241-7.901-.568-11.775-1.421-1.112-.245-1.954-1.334-2.71-2.186a88.345 88.345 0 0 1-11.406-16.188c-1.472-2.686-2.816-5.481-3.466-8.474-.649-2.994.46-6.938 1.767-9.707Z"/><path fill="#24272C" d="M154.309 257.507c-2.968-4.118-8.26-6.43-13.298-5.81-5.037.62-9.612 4.146-11.493 8.86-4.607-1.398-9.988 1.197-12.362 5.385-2.374 4.188-2.092 9.556.025 13.881-3.076 2.812-4.667 6.944-4.592 11.11.154 8.543 5.689 16.755 13.55 20.102 7.356-18.15 17.204-37.304 28.17-53.528Z"/><path fill="#fff" d="M114.245 327.133s5.765 18.075 22.852 14.698c0 0 8.092-1.059 13.017-7.314.311-.389.606-.794.886-1.229l.872-2.77 2.303-7.361-28.601-20.657-11.329 24.633Z"/><path fill="#040308" d="M131.689 325.71c2.474 4.754 6.933 8.597 12.185 9.686 1.276.265 2.606.366 3.882.102a6.911 6.911 0 0 0 2.358-.981c.311-.389.606-.793.886-1.229l.872-2.77c-6.769-7.563-13.709-15.748-22.642-20.463-.637 5.322-.015 10.893 2.459 15.655Z"/><path fill="#fff" stroke="#24272C" d="M178.058 283.921c-.521-4.599-2.325-9.009-5.147-12.678l.397-.305-.397.305a25.552 25.552 0 0 0-13.532-9.085l.132-.482-.132.482c-13.633-3.753-27.707 4.195-31.438 17.749a26.03 26.03 0 0 0-.874 5.399l-.001.026-.004.025a84.088 84.088 0 0 0-.715 5.552c-.399 4.119-.716 9.874-.579 17.321.159 8.416 4.658 14.794 10.927 18.567 6.28 3.78 14.32 4.932 21.491 2.877.766-.221 1.504-.54 2.209-.933 3.109-1.736 5.503-4.618 7.423-7.913s3.345-6.964 4.538-10.239v-.001c1.352-3.708 2.38-7.495 3.395-11.327l.394-1.473c1.246-4.629 2.452-9.107 1.913-13.867Zm0 0 .497-.056-.497.056Z"/><path fill="#040308" d="M160.36 313.22a.274.274 0 0 0 .266-.208c1.37-5.516 2.727-11.117 4.032-16.648a.274.274 0 0 0-.203-.33.278.278 0 0 0-.33.204 1446.142 1446.142 0 0 1-3.945 16.295 13.316 13.316 0 0 1-3.039-2.379.274.274 0 0 0-.387-.01.276.276 0 0 0-.009.388 13.89 13.89 0 0 0 3.485 2.656.28.28 0 0 0 .13.032ZM155.116 315.838c1.001 0 1.824-.844 2.133-1.16a.274.274 0 0 0-.392-.383c-.864.885-1.571 1.169-2.224.897-.86-.362-.943-1.423-.953-2.48-.001-.15-.131-.262-.276-.27a.275.275 0 0 0-.272.277c.01.915.025 2.447 1.289 2.977.238.1.471.142.695.142ZM167.919 301.419c-.29 1.026.196 2.06 1.084 2.311.889.251 1.845-.376 2.134-1.402.29-1.025-.195-2.06-1.084-2.311-.889-.251-1.844.376-2.134 1.402ZM152.225 295.559c-.289 1.025.196 2.06 1.085 2.311.889.251 1.844-.377 2.134-1.402.29-1.026-.196-2.061-1.085-2.312-.889-.251-1.844.377-2.134 1.403Z"/><path fill="#fff" d="M125.366 283.535c-2.099-.422-4.346.371-5.898 1.846-1.552 1.474-2.442 3.563-2.693 5.689-.569 4.813 2.287 9.835 6.714 11.807 1.116.497 2.361.817 3.561.584 1.608-.311 2.906-1.591 3.599-3.075.693-1.484.862-3.157.899-4.795.103-4.654-.484-10.911-6.182-12.056Z"/><path fill="#040308" d="M125.986 296.266a.294.294 0 0 0 .286-.364c-.286-1.189-.582-2.419-1.093-3.572-.584-1.319-1.367-2.33-2.326-3.003a.295.295 0 0 0-.338.482c.87.61 1.585 1.539 2.126 2.76.489 1.103.778 2.307 1.059 3.472a.295.295 0 0 0 .286.225Z"/><path fill="#24272C" d="M150.583 254.283c3.017 1.398 5.888 3.24 8.03 5.783 2.142 2.544 3.501 5.852 3.251 9.168-.133 1.762-.776 3.574-2.15 4.686-2.029 1.642-5.174 1.275-7.264-.288.4 2.389.684 4.837.217 7.213-.467 2.377-1.994 4.701-4.31 5.409-1.68.513-3.551.103-5.051-.812-1.501-.914-2.671-2.288-3.636-3.757.111 2.354-.408 4.696-1.711 6.659-1.302 1.964-3.553 3.374-5.907 3.301-.975-.03-1.931-.305-2.814-.718-4.512-2.112-6.639-7.659-6.059-12.608.581-4.948 3.336-9.368 6.402-13.295 2.471-3.164 5.229-6.167 8.587-8.368 3.358-2.2 8.773-4.062 12.415-2.373Z"/><path fill="#24272C" d="M180.341 269.767c.814 3.224 1.193 6.614.567 9.879-.626 3.266-2.339 6.406-5.072 8.3-1.452 1.008-3.263 1.65-4.993 1.283-2.554-.541-4.25-3.215-4.353-5.823-1.603 1.816-3.325 3.579-5.465 4.714-2.14 1.134-4.907 1.412-6.916.059-1.457-.981-2.316-2.692-2.551-4.434-.236-1.741.095-3.515.627-5.19-1.759 1.569-3.904 2.641-6.249 2.867-2.346.225-4.859-.634-6.286-2.509-.59-.776-.979-1.692-1.214-2.637-1.203-4.835 1.765-9.981 5.974-12.648 4.208-2.667 9.377-3.311 14.358-3.404 4.014-.075 8.084.175 11.908 1.397 3.825 1.221 8.682 4.253 9.665 8.146Z"/><path fill="#C7E3F4" d="m171.851 335.225-3.836 1.18 3.836 1.18 1.18 3.836 1.18-3.836 3.836-1.18-3.836-1.18-1.18-3.836-1.18 3.836ZM184.983 349.713l-2.798.861 2.798.861.861 2.799.861-2.799 2.799-.861-2.799-.861-.861-2.798-.861 2.798ZM58.692 365.208l-2.799.861 2.799.861.86 2.799.862-2.799 2.798-.861-2.798-.861-.861-2.798-.861 2.798ZM47.18 377.554l-3.122.96 3.121.961.96 3.121.96-3.121 3.122-.961-3.122-.96-.96-3.121-.96 3.121Z"/><path fill="#fff" d="m27.18 357.554-3.122.96 3.121.961.96 3.121.96-3.121 3.122-.961-3.122-.96-.96-3.121-.96 3.121Z"/><path fill="#C7E3F4" d="m101.852 302.881-3.12.96 3.12.96.961 3.121.96-3.121 3.121-.96-3.121-.96-.96-3.122-.961 3.122ZM54.081 390.482l-3.83 1.178 3.83 1.179 1.178 3.83 1.179-3.83 3.83-1.179-3.83-1.178-1.179-3.83-1.178 3.83Z"/><path fill="#fff" stroke="#000" d="M212.074 367.608h.561l-.064.557-.577 5.028 3.97-5.382.15-.203h19.827a2.675 2.675 0 0 0 2.675-2.675v-12.891a2.675 2.675 0 0 0-2.675-2.675h-33.102a2.675 2.675 0 0 0-2.675 2.675v12.891a2.675 2.675 0 0 0 2.675 2.675h9.235Z"/><path fill="#C7E3F4" d="M233.116 353a1 1 0 0 1 0 2h-28a1 1 0 0 1 0-2h28ZM233.116 359a1 1 0 0 1 0 2h-17a1 1 0 0 1 0-2h17Z"/><defs><linearGradient id="paint0_linear_5303_1440" x1="149.44" x2="252.365" y1="-90.935" y2="293.184" gradientUnits="userSpaceOnUse"><stop stop-color="#fff"/><stop offset="1" stop-color="#fff" stop-opacity="0"/></linearGradient><linearGradient id="paint1_linear_5303_1440" x1="-64.627" x2="38.224" y1="-32.102" y2="351.743" gradientUnits="userSpaceOnUse"><stop stop-color="#fff"/><stop offset="1" stop-color="#fff" stop-opacity="0"/></linearGradient></defs></svg>